<?xml version="1.0" encoding="UTF-8"?>
<svg id="Layer_1" data-name="Layer 1" xmlns="http://www.w3.org/2000/svg" viewBox="0 0 2248.46 636.29">
  <defs>
    <style>
      .cls-1 {
        fill: #002d62;
      }

      .cls-2 {
        fill: #ef8818;
      }
    </style>
  </defs>
  <g>
    <path class="cls-2" d="m392.02,237.37l102.99-105.41h-24.07c-20.12,0-39.39,8.11-53.46,22.51l-42.79,43.8c-12.38,12.67-32.77,12.67-45.15,0l-42.79-43.8c-14.06-14.39-33.33-22.51-53.46-22.51h-24.07l102.99,105.41c21.89,22.4,57.92,22.4,79.81,0Z"/>
    <rect class="cls-2" x="323.64" y="70.76" width="56.95" height="56.95" rx="9.2" ry="9.2" transform="translate(32.96 278.05) rotate(-45)"/>
    <path class="cls-2" d="m312.21,398.92l-102.99,105.4h24.07c20.12,0,39.39-8.11,53.46-22.51l42.79-43.79c12.38-12.67,32.77-12.67,45.15,0l42.79,43.79c14.06,14.39,33.33,22.51,53.46,22.51h24.07l-102.99-105.4c-21.89-22.4-57.92-22.4-79.81,0Z"/>
    <rect class="cls-2" x="323.64" y="508.58" width="56.95" height="56.95" rx="9.2" ry="9.2" transform="translate(-276.62 406.28) rotate(-45)"/>
    <path class="cls-1" d="m269.98,276.88l-105.41-102.99v24.07c0,20.12,8.11,39.39,22.51,53.46l43.79,42.79c12.67,12.38,12.67,32.77,0,45.15l-43.79,42.79c-14.39,14.06-22.51,33.33-22.51,53.46v24.07l105.41-102.99c22.4-21.89,22.4-57.92,0-79.81Z"/>
    <rect class="cls-1" x="103.37" y="288.31" width="56.95" height="56.95" rx="9.2" ry="9.2" transform="translate(-185.38 186.01) rotate(-45)"/>
    <path class="cls-1" d="m470.64,294.21l43.79-42.79c14.39-14.06,22.51-33.33,22.51-53.46v-24.07l-105.41,102.99c-22.4,21.89-22.4,57.92,0,79.81l105.41,102.99v-24.07c0-20.12-8.11-39.39-22.51-53.46l-43.79-42.79c-12.67-12.38-12.67-32.77,0-45.15Z"/>
    <rect class="cls-1" x="541.19" y="288.31" width="56.95" height="56.95" rx="9.2" ry="9.2" transform="translate(-57.15 495.6) rotate(-45)"/>
  </g>
  <g>
    <path class="cls-2" d="m674.36,395.04h-37.78l96.95-222h37.79l96.95,222h-39.11l-22.06-50.14h-110.67l-22.07,50.14Zm77.57-176.53l-40.78,92.61h81.23l-40.45-92.61Z"/>
    <path class="cls-2" d="m1009.07,306.78h-70.2v88.26h-36.78v-222h106.99c52.16,0,75.57,30.76,75.57,66.87s-23.41,66.87-75.57,66.87Zm-1.34-99.97h-68.87v66.2h68.87c24.75,0,40.12-12.04,40.12-33.1s-15.37-33.1-40.12-33.1Z"/>
    <path class="cls-1" d="m1188,395.04h-36.78v-222h36.78v222Z"/>
    <path class="cls-1" d="m1444.1,306.44c0-24.07-12.04-39.11-37.45-39.11-22.4,0-42.45,18.05-42.45,47.47v80.24h-35.45v-88.6c0-24.07-12.04-39.11-37.45-39.11-22.4,0-42.12,18.05-42.12,46.79v80.91h-35.45v-156.14h35.45v14.38c9.02-10.37,26.07-18.72,47.47-18.72,25.74,0,45.47,9.03,56.84,26.42,12.02-15.04,31.75-26.42,58.17-26.42,41.13,0,67.87,26.75,67.87,67.2v93.28h-35.45v-88.6Z"/>
    <path class="cls-1" d="m1507.35,463.24v-224.34h35.45v14.38c11.03-11.7,29.42-18.72,49.14-18.72,50.82,0,79.58,39.45,79.58,82.24s-28.76,82.58-79.58,82.58c-19.72,0-38.11-7.02-49.14-18.72v82.58h-35.45Zm82.24-96.62c27.42,0,46.48-22.73,46.48-49.82s-19.05-49.47-46.48-49.47c-24.4,0-48.14,16.38-48.14,49.47s23.74,49.82,48.14,49.82Z"/>
    <path class="cls-1" d="m1847.41,296.75v98.29h-35.45v-14.38c-11.69,12.38-30.42,18.72-52.49,18.72-37.45,0-62.52-18.05-62.52-52.49,0-38.45,34.77-50.14,71.22-50.14h43.79c0-21.4-18.39-29.42-41.11-29.42-18.06,0-34.11,5.68-39.79,20.05h-37.78c9.02-35.1,41.45-52.82,77.22-52.82,45.47,0,76.9,22.4,76.9,62.19Zm-35.45,28.42h-44.13c-22.06,0-35.43,6.69-35.43,21.73,0,14.05,12.37,22.4,32.76,22.4,26.75,0,46.81-13.37,46.81-35.78v-8.36Z"/>
    <path class="cls-1" d="m1992.55,287.38c-8.02-13.03-22.07-20.05-38.12-20.05-27.74,0-47.14,21.05-47.14,49.47s19.4,49.82,47.14,49.82c16.05,0,30.1-7.03,38.12-20.06h37.11c-11.37,32.43-40.46,52.82-75.23,52.82-46.79,0-82.57-35.1-82.57-82.58s35.78-82.24,82.57-82.24c34.77,0,63.86,20.39,75.23,52.82h-37.11Z"/>
    <path class="cls-1" d="m2104.25,199.79v39.11h48.82v31.1h-48.82v70.54c0,15.05,7.69,23.41,23.74,23.41h25.08v31.09h-25.42c-39.11,0-58.84-19.05-58.84-48.48v-76.56h-28.75v-31.1h28.75v-39.11h35.45Z"/>
  </g>
</svg>