<?xml version="1.0" encoding="UTF-8"?>
<svg id="Layer_1" data-name="Layer 1" xmlns="http://www.w3.org/2000/svg" viewBox="0 0 885.62 703.24">
  <defs>
    <style>
      .cls-1 {
        fill: #002d62;
      }

      .cls-2 {
        fill: #ef8818;
      }
    </style>
  </defs>
  <g>
    <path class="cls-2" d="m476.59,204.85l84.32-86.29h-19.71c-16.47,0-32.25,6.64-43.76,18.42l-35.03,35.85c-10.14,10.37-26.83,10.37-36.96,0l-35.03-35.85c-11.51-11.78-27.29-18.42-43.76-18.42h-19.71l84.32,86.29c17.92,18.34,47.42,18.34,65.34,0Z"/>
    <rect class="cls-2" x="420.61" y="68.45" width="46.62" height="46.62" rx="7.53" ry="7.53" transform="translate(65.14 340.78) rotate(-45)"/>
    <path class="cls-2" d="m411.25,337.11l-84.32,86.29h19.71c16.47,0,32.25-6.64,43.76-18.42l35.03-35.85c10.14-10.37,26.83-10.37,36.96,0l35.03,35.85c11.51,11.78,27.29,18.42,43.76,18.42h19.71l-84.32-86.29c-17.92-18.34-47.42-18.34-65.34,0Z"/>
    <rect class="cls-2" x="420.61" y="426.88" width="46.62" height="46.62" rx="7.53" ry="7.53" transform="translate(-188.31 445.76) rotate(-45)"/>
    <path class="cls-1" d="m376.68,237.19l-86.29-84.32v19.71c0,16.47,6.64,32.25,18.42,43.76l35.85,35.03c10.37,10.14,10.37,26.83,0,36.96l-35.85,35.03c-11.78,11.51-18.42,27.29-18.42,43.76v19.71l86.29-84.32c18.34-17.92,18.34-47.42,0-65.34Z"/>
    <rect class="cls-1" x="240.28" y="246.55" width="46.62" height="46.62" rx="7.53" ry="7.53" transform="translate(-113.62 265.43) rotate(-45)"/>
    <path class="cls-1" d="m540.96,251.38l35.85-35.03c11.78-11.51,18.42-27.29,18.42-43.76v-19.71l-86.29,84.32c-18.34,17.92-18.34,47.42,0,65.34l86.29,84.32v-19.71c0-16.47-6.64-32.25-18.42-43.76l-35.85-35.03c-10.37-10.14-10.37-26.83,0-36.96Z"/>
    <rect class="cls-1" x="598.72" y="246.55" width="46.62" height="46.62" rx="7.53" ry="7.53" transform="translate(-8.63 518.88) rotate(-45)"/>
  </g>
  <g>
    <path class="cls-2" d="m96.15,608.5h-18.19l46.67-106.85h18.19l46.67,106.85h-18.83l-10.62-24.14h-53.26l-10.62,24.14Zm37.33-84.96l-19.63,44.57h39.1l-19.47-44.57Z"/>
    <path class="cls-2" d="m257.22,566.02h-33.79v42.48h-17.7v-106.85h51.49c25.1,0,36.37,14.8,36.37,32.18s-11.27,32.18-36.37,32.18Zm-.64-48.11h-33.15v31.86h33.15c11.91,0,19.31-5.79,19.31-15.93s-7.4-15.93-19.31-15.93Z"/>
    <path class="cls-1" d="m343.29,608.5h-17.7v-106.85h17.7v106.85Z"/>
    <path class="cls-1" d="m466.55,565.86c0-11.59-5.79-18.83-18.02-18.83-10.78,0-20.44,8.69-20.44,22.85v38.62h-17.06v-42.64c0-11.59-5.79-18.83-18.02-18.83-10.78,0-20.28,8.69-20.28,22.53v38.94h-17.06v-75.15h17.06v6.92c4.35-4.99,12.55-9.01,22.85-9.01,12.39,0,21.88,4.35,27.36,12.71,5.79-7.24,15.29-12.71,28-12.71,19.8,0,32.67,12.88,32.67,32.34v44.9h-17.06v-42.64Z"/>
    <path class="cls-1" d="m496.95,641.33v-107.98h17.06v6.92c5.31-5.63,14.16-9.01,23.66-9.01,24.46,0,38.3,18.99,38.3,39.59s-13.84,39.75-38.3,39.75c-9.49,0-18.34-3.38-23.66-9.01v39.75h-17.06Zm39.59-46.5c13.19,0,22.37-10.94,22.37-23.98s-9.17-23.81-22.37-23.81c-11.75,0-23.17,7.88-23.17,23.81s11.43,23.98,23.17,23.98Z"/>
    <path class="cls-1" d="m660.59,561.19v47.31h-17.06v-6.92c-5.63,5.95-14.64,9.01-25.26,9.01-18.02,0-30.09-8.69-30.09-25.26,0-18.51,16.73-24.14,34.28-24.14h21.08c0-10.3-8.85-14.16-19.79-14.16-8.69,0-16.41,2.74-19.15,9.65h-18.19c4.35-16.89,19.95-25.42,37.17-25.42,21.88,0,37.01,10.78,37.01,29.93Zm-17.06,13.68h-21.24c-10.62,0-17.06,3.22-17.06,10.46,0,6.76,5.95,10.78,15.77,10.78,12.87,0,22.53-6.44,22.53-17.22v-4.02Z"/>
    <path class="cls-1" d="m730.42,556.69c-3.86-6.27-10.62-9.65-18.34-9.65-13.35,0-22.69,10.14-22.69,23.81s9.34,23.98,22.69,23.98c7.72,0,14.48-3.38,18.34-9.66h17.86c-5.47,15.61-19.47,25.42-36.21,25.42-22.53,0-39.75-16.89-39.75-39.75s17.22-39.59,39.75-39.59c16.74,0,30.73,9.82,36.21,25.42h-17.86Z"/>
    <path class="cls-1" d="m784.16,514.53v18.83h23.49v14.97h-23.49v33.95c0,7.24,3.7,11.27,11.43,11.27h12.07v14.96h-12.23c-18.83,0-28.32-9.17-28.32-23.33v-36.85h-13.84v-14.97h13.84v-18.83h17.06Z"/>
  </g>
</svg>