<?xml version="1.0" encoding="utf-8"?>
<!-- Generator: Adobe Illustrator 27.3.1, SVG Export Plug-In . SVG Version: 6.00 Build 0)  -->
<svg version="1.1" id="Layer_1" xmlns="http://www.w3.org/2000/svg" xmlns:xlink="http://www.w3.org/1999/xlink" x="0px" y="0px"
	 viewBox="0 0 2000 2000" style="enable-background:new 0 0 2000 2000;" xml:space="preserve">
<style type="text/css">
	.st0{fill:#FFFFFF;}
	.st1{fill:#1E3160;}
</style>
<rect class="st0" width="2000" height="2000"/>
<g>
	<path class="st1" d="M536.64,948.88l65.18-66.71h-15.24c-12.73,0-24.93,5.14-33.83,14.24l-27.08,27.71
		c-7.84,8.02-20.74,8.02-28.57,0l-27.08-27.71c-8.9-9.11-21.1-14.24-33.83-14.24h-15.24l65.18,66.71
		C499.98,963.06,522.79,963.06,536.64,948.88"/>
	<path class="st1" d="M532.75,857.35L515.5,840.1c-2.27-2.27-5.96-2.27-8.23,0l-17.25,17.25c-2.27,2.27-2.27,5.96,0,8.23
		l17.25,17.25c2.27,2.27,5.96,2.27,8.23,0l17.25-17.25C535.03,863.31,535.03,859.63,532.75,857.35"/>
	<path class="st1" d="M486.13,1051.12l-65.17,66.71h15.23c12.73,0,24.93-5.14,33.83-14.24l27.08-27.71c7.84-8.02,20.74-8.02,28.57,0
		l27.08,27.71c8.9,9.11,21.1,14.24,33.83,14.24h15.23l-65.17-66.71C522.79,1036.95,499.98,1036.95,486.13,1051.12"/>
	<path class="st1" d="M490.02,1142.65l17.25,17.25c2.27,2.27,5.96,2.27,8.23,0l17.25-17.25c2.27-2.27,2.27-5.96,0-8.23l-17.25-17.25
		c-2.27-2.27-5.96-2.27-8.23,0l-17.25,17.25C487.74,1136.69,487.74,1140.37,490.02,1142.65"/>
	<path class="st1" d="M459.41,973.89l-66.71-65.18v15.24c0,12.73,5.14,24.93,14.24,33.83l27.71,27.08c8.02,7.84,8.02,20.74,0,28.57
		l-27.71,27.08c-9.11,8.9-14.24,21.1-14.24,33.83v15.24l66.71-65.18C473.58,1010.54,473.58,987.74,459.41,973.89"/>
	<path class="st1" d="M393.36,995.02l-17.25-17.25c-2.27-2.27-5.96-2.27-8.23,0l-17.25,17.25c-2.27,2.27-2.27,5.96,0,8.23
		l17.25,17.26c2.27,2.27,5.96,2.27,8.23,0l17.25-17.26C395.63,1000.98,395.63,997.3,393.36,995.02"/>
	<path class="st1" d="M586.39,984.85l27.71-27.08c9.11-8.9,14.24-21.1,14.24-33.83v-15.23l-66.71,65.17
		c-14.17,13.85-14.17,36.66,0,50.51l66.71,65.18v-15.24c0-12.73-5.14-24.93-14.24-33.83l-27.71-27.08
		C578.37,1005.59,578.37,992.69,586.39,984.85"/>
	<path class="st1" d="M627.69,1003.25l17.25,17.25c2.27,2.27,5.96,2.27,8.23,0l17.25-17.25c2.27-2.27,2.27-5.96,0-8.23l-17.25-17.26
		c-2.27-2.27-5.96-2.27-8.23,0l-17.25,17.26C625.42,997.29,625.42,1000.98,627.69,1003.25"/>
	<path class="st1" d="M715.31,1048.66H691.4l61.35-140.49h23.91l61.35,140.49h-24.75l-13.96-31.73h-70.03L715.31,1048.66z
		 M764.39,936.95l-25.81,58.61h51.41L764.39,936.95z"/>
	<path class="st1" d="M927.13,992.81H882.7v55.86h-23.28V908.18h67.71c33.01,0,47.82,19.47,47.82,42.31
		C974.94,973.34,960.13,992.81,927.13,992.81 M926.28,929.54H882.7v41.9h43.58c15.66,0,25.39-7.62,25.39-20.95
		S941.94,929.54,926.28,929.54"/>
	<rect x="1017.08" y="908.17" class="st1" width="23.28" height="140.49"/>
	<path class="st1" d="M1202.43,992.6c0-15.23-7.62-24.75-23.69-24.75c-14.18,0-26.87,11.42-26.87,30.04v50.78h-22.43V992.6
		c0-15.23-7.62-24.75-23.69-24.75c-14.18,0-26.65,11.42-26.65,29.61v51.2h-22.43v-98.81h22.43v9.1c5.71-6.56,16.5-11.84,30.04-11.84
		c16.29,0,28.77,5.72,35.97,16.71c7.61-9.52,20.09-16.71,36.81-16.71c26.03,0,42.96,16.93,42.96,42.52v59.03h-22.43V992.6z"/>
	<path class="st1" d="M1242.45,1091.82V949.86h22.43v9.1c6.98-7.41,18.62-11.84,31.1-11.84c32.16,0,50.36,24.96,50.36,52.04
		c0,27.3-18.2,52.26-50.36,52.26c-12.48,0-24.11-4.44-31.1-11.85v52.26H1242.45z M1294.5,1030.68c17.35,0,29.41-14.39,29.41-31.53
		c0-16.93-12.06-31.31-29.41-31.31c-15.44,0-30.47,10.36-30.47,31.31C1264.03,1020.32,1279.05,1030.68,1294.5,1030.68"/>
	<path class="st1" d="M1457.65,986.46v62.2h-22.43v-9.1c-7.4,7.84-19.25,11.85-33.22,11.85c-23.69,0-39.56-11.42-39.56-33.22
		c0-24.33,22-31.73,45.07-31.73h27.71c0-13.54-11.64-18.62-26.02-18.62c-11.43,0-21.59,3.6-25.18,12.69h-23.9
		c5.71-22.21,26.23-33.42,48.87-33.42C1437.76,947.11,1457.65,961.28,1457.65,986.46 M1435.22,1004.45h-27.93
		c-13.96,0-22.42,4.23-22.42,13.75c0,8.89,7.82,14.18,20.73,14.18c16.93,0,29.62-8.46,29.62-22.64V1004.45z"/>
	<path class="st1" d="M1549.5,980.53c-5.08-8.24-13.97-12.69-24.12-12.69c-17.56,0-29.83,13.33-29.83,31.31
		c0,17.99,12.27,31.53,29.83,31.53c10.15,0,19.05-4.45,24.12-12.69h23.49c-7.2,20.52-25.6,33.42-47.61,33.42
		c-29.61,0-52.25-22.21-52.25-52.26c0-29.83,22.64-52.04,52.25-52.04c22,0,40.41,12.9,47.61,33.42H1549.5z"/>
	<path class="st1" d="M1620.19,925.1v24.75h30.89v19.68h-30.89v44.64c0,9.53,4.87,14.81,15.02,14.81h15.87v19.67H1635
		c-24.75,0-37.24-12.06-37.24-30.68v-48.45h-18.19v-19.68h18.19V925.1H1620.19z"/>
</g>
</svg>
