<?xml version="1.0" encoding="utf-8"?>
<!-- Generator: Adobe Illustrator 27.3.1, SVG Export Plug-In . SVG Version: 6.00 Build 0)  -->
<svg version="1.1" id="Layer_1" xmlns="http://www.w3.org/2000/svg" xmlns:xlink="http://www.w3.org/1999/xlink" x="0px" y="0px"
	 viewBox="0 0 2000 2000" style="enable-background:new 0 0 2000 2000;" xml:space="preserve">
<style type="text/css">
	.st0{fill:#ED8622;}
</style>
<g>
	<path class="st0" d="M1055.56,758.62l138.66-141.91h-32.41c-27.09,0-53.03,10.92-71.97,30.3l-57.62,58.96
		c-16.67,17.06-44.12,17.06-60.79,0l-57.62-58.96c-18.94-19.38-44.88-30.3-71.97-30.3h-32.41L948.1,758.62
		C977.57,788.78,1026.09,788.78,1055.56,758.62"/>
	<path class="st0" d="M1047.29,563.89l-36.7-36.7c-4.84-4.84-12.68-4.84-17.51,0l-36.7,36.7c-4.84,4.84-4.84,12.68,0,17.51
		l36.7,36.7c4.84,4.84,12.68,4.84,17.51,0l36.7-36.7C1052.12,576.57,1052.12,568.72,1047.29,563.89"/>
	<path class="st0" d="M948.1,976.13l-138.66,141.91h32.41c27.09,0,53.04-10.93,71.97-30.3l57.62-58.96
		c16.67-17.06,44.12-17.06,60.79,0l57.61,58.96c18.94,19.37,44.88,30.3,71.98,30.3h32.41l-138.66-141.91
		C1026.09,945.97,977.57,945.97,948.1,976.13"/>
	<path class="st0" d="M956.37,1170.86l36.7,36.7c4.84,4.84,12.68,4.84,17.51,0l36.7-36.7c4.84-4.84,4.84-12.68,0-17.51l-36.7-36.7
		c-4.84-4.84-12.68-4.84-17.51,0l-36.7,36.7C951.54,1158.18,951.54,1166.03,956.37,1170.86"/>
	<path class="st0" d="M891.24,811.82L749.33,673.15v32.41c0,27.09,10.92,53.03,30.3,71.97l58.96,57.62
		c17.06,16.67,17.06,44.12,0,60.79l-58.96,57.62c-19.38,18.93-30.3,44.88-30.3,71.97v32.41l141.91-138.66
		C921.4,889.8,921.4,841.29,891.24,811.82"/>
	<path class="st0" d="M750.73,856.79l-36.7-36.7c-4.84-4.84-12.68-4.84-17.51,0l-36.7,36.7c-4.84,4.84-4.84,12.68,0,17.51l36.7,36.7
		c4.84,4.84,12.68,4.84,17.51,0l36.7-36.7C755.56,869.47,755.56,861.62,750.73,856.79"/>
	<path class="st0" d="M1161.4,835.15l58.96-57.62c19.37-18.93,30.3-44.88,30.3-71.97v-32.41l-141.91,138.66
		c-30.16,29.47-30.16,77.99,0,107.45l141.91,138.66v-32.41c0-27.09-10.93-53.04-30.3-71.97l-58.96-57.62
		C1144.34,879.27,1144.34,851.82,1161.4,835.15"/>
	<path class="st0" d="M1249.27,874.3l36.7,36.7c4.84,4.84,12.68,4.84,17.51,0l36.7-36.7c4.84-4.84,4.84-12.68,0-17.51l-36.7-36.7
		c-4.83-4.84-12.68-4.84-17.51,0l-36.7,36.7C1244.43,861.62,1244.43,869.47,1249.27,874.3"/>
	<path class="st0" d="M429.91,1422.46H400l76.74-175.72h29.91l76.74,175.72h-30.97l-17.47-39.7h-87.59L429.91,1422.46z
		 M491.3,1282.73l-32.28,73.3h64.31L491.3,1282.73z"/>
	<path class="st0" d="M694.78,1352.59h-55.57v69.86H610.1v-175.72h84.68c41.28,0,59.81,24.34,59.81,52.93
		C754.59,1328.24,736.06,1352.59,694.78,1352.59 M693.72,1273.47h-54.51v52.4h54.51c19.59,0,31.76-9.53,31.76-26.2
		C725.48,1283,713.31,1273.47,693.72,1273.47"/>
	<rect x="807.23" y="1246.74" class="st0" width="29.11" height="175.72"/>
	<path class="st0" d="M1039.04,1352.33c0-19.05-9.53-30.96-29.64-30.96c-17.73,0-33.61,14.29-33.61,37.57v63.51h-28.05v-70.13
		c0-19.05-9.53-30.96-29.64-30.96c-17.73,0-33.35,14.29-33.35,37.05v64.04H856.7v-123.59h28.05v11.38
		c7.15-8.2,20.64-14.82,37.58-14.82c20.38,0,35.99,7.15,44.99,20.91c9.52-11.9,25.14-20.91,46.04-20.91
		c32.56,0,53.72,21.17,53.72,53.19v73.83h-28.05V1352.33z"/>
	<path class="st0" d="M1089.04,1476.44v-177.57h28.05v11.38c8.74-9.26,23.29-14.82,38.91-14.82c40.22,0,62.98,31.23,62.98,65.1
		c0,34.14-22.75,65.37-62.98,65.37c-15.61,0-30.17-5.56-38.91-14.82v65.37H1089.04z M1154.14,1399.96
		c21.7,0,36.78-17.99,36.78-39.43c0-21.17-15.08-39.17-36.78-39.17c-19.32,0-38.11,12.96-38.11,39.17
		C1116.03,1386.99,1134.82,1399.96,1154.14,1399.96"/>
	<path class="st0" d="M1358.15,1344.65v77.81h-28.05v-11.38c-9.27,9.79-24.08,14.82-41.54,14.82c-29.64,0-49.49-14.29-49.49-41.55
		c0-30.43,27.52-39.7,56.37-39.7h34.66c0-16.94-14.55-23.29-32.55-23.29c-14.29,0-26.99,4.5-31.49,15.87h-29.91
		c7.15-27.78,32.82-41.81,61.13-41.81C1333.28,1295.43,1358.15,1313.16,1358.15,1344.65 M1330.1,1367.15h-34.93
		c-17.47,0-28.05,5.29-28.05,17.2c0,11.11,9.79,17.73,25.94,17.73c21.17,0,37.05-10.59,37.05-28.31V1367.15z"/>
	<path class="st0" d="M1472.98,1337.24c-6.35-10.31-17.46-15.87-30.17-15.87c-21.96,0-37.31,16.67-37.31,39.17
		s15.35,39.43,37.31,39.43c12.71,0,23.82-5.56,30.17-15.88h29.38c-9,25.67-32.02,41.82-59.54,41.82
		c-37.05,0-65.37-27.79-65.37-65.37c0-37.31,28.32-65.11,65.37-65.11c27.52,0,50.54,16.15,59.54,41.82H1472.98z"/>
	<path class="st0" d="M1561.36,1267.91v30.96H1600v24.62h-38.64v55.83c0,11.92,6.09,18.53,18.8,18.53H1600v24.61h-20.11
		c-30.97,0-46.58-15.08-46.58-38.37v-60.6h-22.76v-24.62h22.76v-30.96H1561.36z"/>
</g>
</svg>
